# xmcd
# 
# Track frame offsets:
#     150
#     30007
#     56907
#     76891
#     108927
#     128537
#     149870
#     181309
#     212959
#     237742
#     261144
# 
# Disc length: 3849
# 
# Revision: 0
# Processed by: cddbd v1.5.2PL0 Copyright (c) Steve Scherf et al.
# Submitted via: fre:ac v1.0.17
# 
DISCID=9c0f070b
DTITLE=Big Bat Blues Band - Todo Dia é Dia de Blues
DYEAR=2013
DGENRE=Blues
TTITLE0=Destino America
TTITLE1=Não consigo nem mais dormir
TTITLE2=Expresso do Blues
TTITLE3=Black jeans
TTITLE4=Instrumental
TTITLE5=Mojo blues
TTITLE6=Look at yourself
TTITLE7=Naturalmente bluies
TTITLE8=Para voltar ao blues
TTITLE9=Quem
TTITLE10=Velho Vagão
EXTD=Com quase vinte anos de estrada, a Big Bat faz do blues tradicional sua marca registrada. Além de interpretar os grandes nomes como Muddy Waters, John Lee Hooker, Sonny Boy Williamson e Elmore James, a Big Bat também tem seus próprios clássicos. "Não
EXTD=consigo nem mais dormir", "Expresso do Blues" e "Mojo Blues", são apenas algumas das criações da banda que utilizam como base os ensinamentos e os rudimentos melódicos deixados pelos grandes mestres das décadas de 40 e 50 .\n~ Bandas Capixabas em ht
EXTD=tp://bit.ly/XDJQ0e
EXTT0=
EXTT1=
EXTT2=
EXTT3=
EXTT4=
EXTT5=
EXTT6=
EXTT7=
EXTT8=
EXTT9=
EXTT10=
PLAYORDER=
